<?xml version="1.0" encoding="utf-8"?>
<!-- Generator: Adobe Illustrator 27.5.0, SVG Export Plug-In . SVG Version: 6.00 Build 0)  -->
<svg version="1.1" xmlns="http://www.w3.org/2000/svg" xmlns:xlink="http://www.w3.org/1999/xlink" x="0px" y="0px"
	 viewBox="0 0 3710 3710" style="enable-background:new 0 0 3710 3710;" xml:space="preserve">
<g id="Background">
	<g>
		<g>
			<rect style="fill:#FFFFFF;" width="3710" height="3710"/>
		</g>
	</g>
</g>
<g id="Illustration">
	<g>
		<linearGradient id="SVGID_1_" gradientUnits="userSpaceOnUse" x1="3464.1289" y1="3274.1064" x2="1387.0271" y2="1456.6437">
			<stop  offset="0" style="stop-color:#B37CFF"/>
			<stop  offset="1" style="stop-color:#F895E7"/>
		</linearGradient>
		<path style="opacity:0.3;fill:url(#SVGID_1_);" d="M3118.822,2326.159c-270.104,626.818-989.599,977.966-1613.546,883.245
			c-101.529-15.413-379.873-61.326-626.308-277.927C404.564,2514.504,303.109,1688.843,685.796,1106.98
			c278.529-423.494,777.822-663.559,1252.247-651.55c102.191,2.586,493.831,18.528,838.014,298.242
			c50.554,41.085,162.055,138.713,262.544,293.594C3274.57,1410.955,3294.852,1917.654,3118.822,2326.159z"/>
		<g>
			
				<linearGradient id="SVGID_00000002342804174277815380000005019883140142189239_" gradientUnits="userSpaceOnUse" x1="261.2319" y1="2650.3567" x2="1540.347" y2="2650.3567" gradientTransform="matrix(0.9295 0.3688 -0.3688 0.9295 1205.9015 -1342.7352)">
				<stop  offset="0" style="stop-color:#A737D5"/>
				<stop  offset="1" style="stop-color:#EF497A"/>
			</linearGradient>
			<path style="fill:url(#SVGID_00000002342804174277815380000005019883140142189239_);" d="M768.507,475.027
				c-3.118-14.302,14.167-24.09,24.982-14.224c109.818,100.169,374.554,401.063,317.408,934.443
				c-71.698,669.204,70.996,910.94,246.368,1057.111c0,0-238.895-66.469-392.148-311.638
				C588.845,1538.77,823.945,729.319,768.507,475.027z"/>
			<path style="fill:#FFFFFF;" d="M853.985,682.48c14.633,74.171,27.796,148.591,38.219,223.385
				c10.814,74.726,19.358,149.747,25.551,224.926c5.904,75.196,10.397,150.492,11.684,225.866
				c1.626,75.365,0.013,150.715-1.87,226.363c-1.46,75.614-3.361,151.78,2.529,228.372c5.808,76.437,20.834,153.408,49.479,225.353
				c7.16,17.93,14.674,35.799,23.167,53.048c8.176,17.413,17.126,34.469,26.377,51.357c18.675,33.693,39.618,66.204,62.878,97.012
				c46.684,61.509,102.698,115.86,164.201,161.655c6.473,4.82,15.628,3.479,20.448-2.994c4.733-6.356,3.525-15.299-2.649-20.183
				l-0.044-0.034c-14.644-11.562-29.137-23.277-43.058-35.598c-7.061-6.051-13.838-12.401-20.732-18.622
				c-6.65-6.474-13.554-12.692-19.996-19.365c-26.214-26.247-50.555-54.304-72.699-84.021
				c-44.533-59.152-80.456-125.266-107.942-193.947c-13.359-34.506-24.153-69.937-32.182-106.076
				c-8.003-36.148-13.24-72.967-16.381-110.113c-6.289-74.333-5.03-149.736-4.113-225.356c0.819-75.638,1.122-151.653-1.703-227.561
				c-1.31-37.953-3.302-75.878-5.972-113.749c-1.226-18.942-2.818-37.857-4.377-56.771c-1.74-18.9-3.584-37.788-5.581-56.656
				c-8.13-75.464-18.559-150.643-31.347-225.388c-13.147-74.683-28.272-148.992-46.233-222.593
				c-0.514-2.104-2.635-3.393-4.738-2.879C854.859,678.412,853.586,680.438,853.985,682.48z"/>
		</g>
		<g>
			<g>
				
					<linearGradient id="SVGID_00000051341816331578577430000002479218546109753238_" gradientUnits="userSpaceOnUse" x1="-2839.6794" y1="-210.7629" x2="-1103.1907" y2="-210.7629" gradientTransform="matrix(0.2666 -0.9639 0.9639 0.2666 1434.7949 -242.8051)">
					<stop  offset="0" style="stop-color:#CE1567"/>
					<stop  offset="1" style="stop-color:#7A1DBC"/>
				</linearGradient>
				<path style="fill:url(#SVGID_00000051341816331578577430000002479218546109753238_);" d="M960.612,2532.347
					c-10.029,28.111-45.507,36.843-67.7,16.887c-122.457-110.109-440.534-452.737-412.161-1020.53
					c23.96-479.476-8.612-741.745-31.649-859.781c-4.871-24.96,24.953-41.631,43.695-24.442
					C699.58,834.116,1324.006,1513.754,960.612,2532.347z"/>
				<path style="fill:#FFFFFF;" d="M920.202,2532.778c-0.615,0.412-1.276,0.769-1.984,1.066c-5.932,2.493-12.763-0.296-15.256-6.228
					c-2.826-6.726-282.557-680.224-279.358-1348.409c0.033-6.43,5.272-11.623,11.71-11.598c6.436,0.033,11.627,5.273,11.599,11.71
					c-3.177,663.321,274.727,1332.588,277.534,1339.269C926.643,2523.813,924.742,2529.735,920.202,2532.778z"/>
			</g>
		</g>
		<g>
			
				<linearGradient id="SVGID_00000077296265151809978980000007595154914698728620_" gradientUnits="userSpaceOnUse" x1="1304.538" y1="925.3411" x2="3167.1086" y2="3522.5925">
				<stop  offset="0" style="stop-color:#53D8FF"/>
				<stop  offset="1" style="stop-color:#3840F7"/>
			</linearGradient>
			<path style="fill:url(#SVGID_00000077296265151809978980000007595154914698728620_);" d="M3183.821,1801.81
				c-29.007,660.753-630.699,1171.017-1343.917,1139.706S572.024,2349.178,601.031,1688.426
				c29.007-660.753,630.699-1171.017,1343.917-1139.707S3212.827,1141.057,3183.821,1801.81z"/>
			
				<linearGradient id="SVGID_00000067204071632059223960000003788031071537299630_" gradientUnits="userSpaceOnUse" x1="260.2145" y1="-444.0789" x2="2371.1255" y2="3105.1431">
				<stop  offset="0" style="stop-color:#53D8FF"/>
				<stop  offset="1" style="stop-color:#3840F7"/>
			</linearGradient>
			<path style="fill:url(#SVGID_00000067204071632059223960000003788031071537299630_);" d="M917.285,951.718
				c-28.373,45.55-50.25,96.829-46.142,150.336c4.757,61.955,36.115,119.974,37.722,182.091
				c2.726,105.347-78.596,193.528-103.965,295.811c-28.355,114.326,78.554,244.588,121.148,308.399
				c42.594,63.811,24.289-51.775,50.118-96.846c25.83-45.071,81.523,189.652,168.519,241.168
				c46.676,27.64,101.436,46.039,135.006,88.649c48.962,62.147,35.395,150.58,28.045,229.354
				c-7.351,78.775,3.66,174.778,74.605,209.796c41.773,20.619,94.871,13.641,132.567,41.012
				c66.201,48.067,34.577,152.861,60.81,230.352c28.528,84.27,85.093,85.379,172.611,103.245
				c87.518,17.866-11.027-174.406,29.973-241.604c21.549-35.32,54.447-63.427,71.443-101.15
				c23.57-52.316,16.932-122.214,62.657-156.88c34.276-25.985,81.969-18.955,124.98-19.334
				c43.01-0.379,95.321-19.043,100.201-61.778c4.33-37.917-33.629-68.153-70.768-76.939c-37.139-8.787-76.712-4.597-113.186-15.828
				c-104.326-32.123-152.987-178.113-261.933-184.944c-93.126-5.839-171.126,98.692-262.632,80.435
				c-51.013-10.178-85.931-55.357-123.797-91.023c-48.643-45.817-109.014-80.204-147.634-134.737
				c-38.62-54.533-45.19-141.7,9.751-179.738c40.812-28.256,98.801-16.786,139.119,12.169
				c40.319,28.956,67.78,71.918,97.391,111.758c9.145,12.305,19.495,25.056,34.126,29.636c39.371,12.325,68.1-43.067,58.679-83.232
				c-9.421-40.165-37.794-75.493-39.127-116.727c-2.349-72.671,75.909-118.783,144.562-142.729
				c68.653-23.946,149.57-52.495,169.755-122.346c7.13-24.673,5.259-51.824,16.14-75.088
				c36.06-77.098,226.34-115.588,180.857-160.294s-189.845-54.424-217.957-144.459c-10.064-32.233-20.426-74.84-54.05-77.958
				c-54.768-5.078-86.019,62.714-131.957,74.351c-21.808,5.524-23.906,42.566-23.056,88.116
				c0.617,33.062-25.681,60.367-58.743,60.992c-33.062,0.625-60.377-25.665-61.007-58.727c-0.234-12.272,1.915-24.677,6.962-37.047
				c8.845-21.679,25.641-39.016,42.575-55.185c70.656-67.465,281.491-141.591,237.342-170.309
				c-44.15-28.718-256.045-107.97-287.652-64.234s20.669,6.703,33.418,58.574c12.75,51.871-156.749,44.916-235.123,67.374
				c-12.94,3.708-27.293,7.319-39.409,1.453c-13.542-6.557-19.244-22.32-26.593-35.449c-39.361-70.321-170.28-24.677-170.28-24.677
				S942.637,911.019,917.285,951.718z"/>
			
				<linearGradient id="SVGID_00000140015209870083099090000005279186757819081617_" gradientUnits="userSpaceOnUse" x1="2533.1428" y1="-269.5876" x2="1167.2579" y2="1541.2463">
				<stop  offset="0" style="stop-color:#53D8FF"/>
				<stop  offset="1" style="stop-color:#3840F7"/>
			</linearGradient>
			<path style="fill:url(#SVGID_00000140015209870083099090000005279186757819081617_);" d="M1509.439,632.6
				c-19.029,35.474,37.562,34.899,43.191,74.759c50.944,5.552,71.866-74.768,122.247-84.142
				c28.433-5.291,56.001,15.081,71.452,39.529c15.45,24.447,22.658,53.152,35.753,78.938
				c29.342,57.776,89.929,98.438,154.514,103.701c14.051,1.145,29.536,0.246,40.113-9.074
				c30.705-27.057-13.223-77.887-1.811-117.189c13.041-44.911,77.799-38.097,121.569-54.568
				c12.073-4.543,104.925-29.319,106.418-42.131c2.648-22.714-40.428-37.174-88.617-49.566
				c-81.644-20.994-225.298-20.121-295.516-13.768C1725.333,567.539,1569.69,560.711,1509.439,632.6L1509.439,632.6z"/>
			<g>
				
					<linearGradient id="SVGID_00000101805185932800522680000014918209375928630166_" gradientUnits="userSpaceOnUse" x1="2412.5444" y1="2878.1367" x2="3329.5088" y2="358.5515">
					<stop  offset="0" style="stop-color:#53D8FF"/>
					<stop  offset="1" style="stop-color:#3840F7"/>
				</linearGradient>
				<path style="fill:url(#SVGID_00000101805185932800522680000014918209375928630166_);" d="M3067.341,2158.249
					c21.169-132.512,19.407-268.656-5.184-400.576c-6.56-35.192-21.916-77.145-57.354-82.21
					c-40.99-5.859-91.171,41.227-116.831,8.729c-11.327-14.345-6.807-35.231-0.391-52.345
					c16.922-45.137,43.413-86.658,77.214-121.026c20.998-21.35,45.024-40.276,61.193-65.481
					c34.583-53.909,10.307-132.686-38.639-173.995c-48.945-41.308-112.088,32.769-163.54,3.364
					c-51.451-29.405-53.053-100.743-62.722-159.209c-7.163-43.308-39.072-160.641-74.321-103.499
					c-35.249,57.143,47.018,284.615,139.608,393.654c11.168,13.153,23.5,27.883,22.557,45.111
					c-2.253,41.141-62.204,39.311-102.537,47.734c-49.925,10.428-126.444-16.31-84.216,70.685
					c22.272,45.882,128.656,108.681,100.07,139.386c-28.586,30.705-116.466,119.645-157.701,191.571
					c-41.235,71.927-61.219,161.494-30.123,238.351c31.095,76.856,124.595,129.927,200.92,97.55
					c35.723-15.154,74.66-46.66,107.866-26.583c30.072,18.181,25.634,61.822,24.146,96.931
					c-1.488,35.108,18.75,81.714,52.908,73.466c11.24-2.714,20.081-11.236,27.67-19.958
					C3035.993,2304.667,3055.792,2230.544,3067.341,2158.249z"/>
			</g>
			<ellipse style="opacity:0.2;fill:#FFFFFF;" cx="1822.465" cy="1658.717" rx="1014.321" ry="958.209"/>
			<g style="opacity:0.68;">
				<path style="fill:#FFFFFF;" d="M2253.2,1765.672c-0.308,211.146-14.74,422.717-51.788,630.873
					c-9.38,51.996-20.262,103.741-33.236,154.996c-13.01,51.231-28.037,102.014-46.441,151.66
					c-9.23,24.806-19.318,49.319-30.671,73.282c-11.365,23.946-23.977,47.374-38.632,69.59c-14.714,22.12-31.399,43.3-51.96,60.699
					c-10.277,8.644-21.554,16.301-33.943,21.912c-12.365,5.568-25.861,9.095-39.558,9.349c-13.682,0.406-27.381-2.291-39.987-7.374
					c-12.654-5.037-24.203-12.349-34.726-20.706c-21.048-16.855-38.101-37.801-53.077-59.743
					c-14.943-22.037-27.704-45.393-39.255-69.25c-11.503-23.893-21.734-48.35-31.057-73.124
					c-18.639-49.557-33.816-100.303-46.943-151.502c-13.102-51.218-24.094-102.941-33.555-154.92
					c-18.881-103.982-31.736-208.967-40.386-314.238c-8.587-105.288-12.855-210.908-13.315-316.542
					c-0.223-52.81,1.101-105.617,2.947-158.388c1.924-52.774,4.778-105.512,8.611-158.18
					c7.707-105.324,19.27-210.414,36.509-314.647c8.652-52.102,18.747-103.986,30.9-155.408
					c12.184-51.406,26.351-102.403,43.936-152.289c8.838-24.922,18.503-49.575,29.529-73.646
					c11.009-24.066,23.329-47.603,37.809-69.853c14.513-22.151,31.198-43.287,51.958-60.196c10.378-8.381,21.807-15.67,34.323-20.61
					c12.466-5.003,25.987-7.544,39.443-7.041c13.465,0.381,26.736,3.761,38.988,9.168c12.268,5.436,23.545,12.827,33.903,21.206
					c20.717,16.867,37.872,37.501,53.091,59.171c15.169,21.765,28.396,44.791,40.341,68.403
					c11.971,23.611,22.635,47.847,32.482,72.387c19.608,49.128,35.791,99.532,49.878,150.457
					c14.038,50.948,25.917,102.463,36.193,154.281C2236.157,1342.9,2252.646,1554.5,2253.2,1765.672z M2240.424,1765.672
					c0.152-105.281-3.89-210.589-12.678-315.5c-8.696-104.909-21.869-209.507-41.423-312.949
					c-9.774-51.713-21.15-103.129-34.674-153.981c-13.572-50.823-29.232-101.128-48.286-150.134
					c-9.568-24.478-19.949-48.647-31.615-72.176c-11.64-23.531-24.546-46.459-39.341-68.096
					c-14.839-21.544-31.577-42.009-51.676-58.668c-10.046-8.279-20.954-15.556-32.766-20.917c-11.8-5.297-24.518-8.756-37.447-9.097
					c-12.922-0.417-25.835,2.166-37.788,7.073c-11.999,4.856-23.006,12.004-33.038,20.254
					c-20.069,16.639-36.316,37.556-50.438,59.545c-14.094,22.085-26.094,45.504-36.797,69.469
					c-10.72,23.969-20.104,48.543-28.667,73.391c-17.036,49.745-30.687,100.63-42.364,151.93
					c-11.645,51.317-21.243,103.099-29.4,155.102c-16.254,104.025-26.847,208.907-33.592,313.984
					c-6.791,105.09-9.278,210.424-9.103,315.715c-0.204,105.278,3.387,210.579,11.286,315.566
					c7.961,104.971,20.115,209.672,38.269,313.351c9.095,51.824,19.716,103.389,32.431,154.426
					c12.738,51.017,27.513,101.556,45.695,150.839c9.094,24.632,19.08,48.93,30.305,72.623
					c11.269,23.656,23.722,46.774,38.245,68.489c14.546,21.615,31.099,42.133,51.198,58.424
					c10.044,8.08,20.984,15.082,32.828,19.878c11.807,4.813,24.493,7.477,37.198,7.051c12.705-0.316,25.222-3.662,36.825-8.973
					c11.622-5.35,22.327-12.701,32.149-21.075c19.662-16.848,35.861-37.623,50.15-59.423
					c28.395-43.939,49.458-92.408,67.536-141.642c17.938-49.372,32.552-99.954,45.161-151.004
					c12.574-51.07,23.069-102.657,32.077-154.498c18.016-103.699,30.023-208.416,37.994-313.387
					C2236.729,1976.284,2240.452,1870.973,2240.424,1765.672z"/>
				<path style="fill:#FFFFFF;" d="M2785.821,1765.672c-0.255,67.951-4.551,135.916-13.626,203.274
					c-9.093,67.345-22.588,134.113-40.816,199.595c-36.804,130.783-92.41,256.664-168.077,369.662
					c-37.836,56.44-80.723,109.56-128.665,157.742c-47.915,48.176-100.951,91.353-158.476,127.579
					c-57.531,36.153-119.666,65.182-184.76,84.889c-65.116,19.552-133.068,29.685-201.052,29.669
					c-67.984,0.069-135.95-10.015-201.096-29.524c-65.123-19.66-127.297-48.653-184.877-84.78
					c-57.572-36.192-110.673-79.337-158.652-127.5c-48.006-48.162-90.963-101.276-128.869-157.712
					c-75.792-113.011-131.493-238.939-168.439-369.774c-18.294-65.505-31.948-132.296-41.032-199.697
					c-9.039-67.414-13.295-135.428-13.508-203.422c0.247-67.994,4.538-136.005,13.611-203.409
					c9.118-67.391,22.814-134.165,41.144-199.651c37.022-130.793,92.796-256.648,168.627-369.564
					c37.918-56.397,80.88-109.461,128.883-157.571c47.978-48.101,101.048-91.215,158.612-127.315
					c57.566-36.049,119.728-64.866,184.759-84.521c65.05-19.53,132.926-29.652,200.838-29.633
					c67.912,0.026,135.774,10.196,200.798,29.766c65.002,19.698,127.122,48.561,184.638,84.641
					c57.513,36.135,110.521,79.278,158.434,127.394c47.936,48.129,90.831,101.203,128.678,157.597
					c75.706,112.906,131.386,238.715,168.265,369.455c18.26,65.462,31.79,132.214,40.92,199.549
					C2781.194,1629.763,2785.528,1697.721,2785.821,1765.672z M2771.173,1765.672c-0.036-67.322-4.073-134.673-12.85-201.434
					c-8.794-66.751-21.95-132.942-39.796-197.867c-35.686-129.754-89.555-255.006-163.699-367.595
					c-37.053-56.235-79.143-109.224-126.281-157.36c-47.145-48.081-99.275-91.462-156.163-127.61
					c-56.909-36.029-118.362-65.087-182.833-84.762c-64.496-19.496-131.805-29.664-199.201-29.774
					c-67.394,0.157-134.689,10.372-199.16,29.908c-64.444,19.718-125.853,48.823-182.713,84.882
					c-56.837,36.183-108.906,79.591-155.985,127.689c-47.074,48.156-89.095,101.154-126.077,157.389
					c-74.018,112.576-127.793,237.778-163.336,367.483c-35.418,129.853-52.579,264.5-52.55,399.051
					c0.038,134.551,17.27,269.181,52.766,398.992c35.619,129.659,89.464,254.795,163.524,367.276
					c36.994,56.192,79.019,109.141,126.09,157.244c47.079,48.037,99.117,91.416,155.945,127.503
					c56.845,35.985,118.243,64.915,182.593,84.625c64.375,19.558,131.581,29.814,198.902,30.018
					c67.322-0.155,134.543-10.358,198.947-29.873c64.38-19.667,125.817-48.558,182.71-84.513
					c56.878-36.061,108.98-79.404,156.124-127.427c47.135-48.083,89.23-101.025,126.295-157.218
					c74.185-112.491,128.126-237.673,163.885-367.385c17.88-64.905,31.071-131.083,39.901-197.821
					C2767.024,1900.339,2771.099,1832.994,2771.173,1765.672z"/>
				<path style="fill:#FFFFFF;" d="M843.497,1301.663l269.413-1.77l269.412-1.015l538.827-0.814l538.825,0.897l269.414,1.101
					l269.412,1.919c0.358,0.003,0.645,0.293,0.643,0.653c-0.003,0.353-0.29,0.64-0.643,0.64l-269.412,1.922l-269.414,1.101
					l-538.825,0.897l-538.827-0.814l-269.412-1.015l-269.413-1.773c-0.532-0.003-0.961-0.435-0.956-0.969
					C842.544,1302.092,842.971,1301.667,843.497,1301.663z"/>
				<path style="fill:#FFFFFF;" d="M1156.047,850.422l191.276-1.78l191.276-1.009c63.758-0.429,127.516-0.382,191.274-0.514
					l191.276-0.297l382.55,0.893l191.274,1.101c63.758,0.653,127.518,1.035,191.276,1.922c0.356,0.003,0.643,0.297,0.638,0.653
					c-0.005,0.353-0.29,0.633-0.638,0.639c-63.758,0.884-127.518,1.266-191.276,1.919l-191.274,1.101l-382.55,0.897l-191.276-0.297
					c-63.758-0.135-127.516-0.086-191.274-0.518l-191.276-1.009l-191.276-1.777c-0.531-0.007-0.958-0.442-0.953-0.973
					C1155.099,850.851,1155.525,850.425,1156.047,850.422z"/>
				<path style="fill:#FFFFFF;" d="M749.872,1752.908l292.819-1.774l292.82-1.015l585.638-0.811l585.638,0.893l292.819,1.104
					l292.819,1.919c0.356,0.003,0.645,0.293,0.643,0.649c-0.003,0.356-0.29,0.639-0.643,0.643l-292.819,1.919l-292.819,1.101
					l-585.638,0.897l-585.638-0.814l-292.82-1.012l-292.819-1.774c-0.531-0.003-0.959-0.438-0.956-0.969
					C748.92,1753.337,749.346,1752.911,749.872,1752.908z"/>
				<path style="fill:#FFFFFF;" d="M843.497,2204.15l269.413-1.77l269.412-1.015l538.827-0.814l538.825,0.897l269.414,1.101
					l269.412,1.919c0.358,0.003,0.645,0.297,0.643,0.653c-0.003,0.353-0.29,0.639-0.643,0.643l-269.412,1.919l-269.414,1.101
					l-538.825,0.896l-538.827-0.814l-269.412-1.015l-269.413-1.77c-0.532-0.003-0.961-0.438-0.956-0.969
					C842.544,2204.582,842.971,2204.156,843.497,2204.15z"/>
				<path style="fill:#FFFFFF;" d="M2724.801,2659.733H1194.598c-1.864,0-3.375-1.51-3.375-3.376c0-1.866,1.511-3.376,3.375-3.376
					h1530.202c1.864,0,3.376,1.51,3.376,3.376C2728.176,2658.223,2726.665,2659.733,2724.801,2659.733z"/>
			</g>
		</g>
		<g>
			
				<linearGradient id="SVGID_00000114044975049938505900000011048447326728113065_" gradientUnits="userSpaceOnUse" x1="1486.8868" y1="3498.4668" x2="2465.8254" y2="1250.2822">
				<stop  offset="0" style="stop-color:#CB236D"/>
				<stop  offset="1" style="stop-color:#4C246D"/>
			</linearGradient>
			<path style="fill:url(#SVGID_00000114044975049938505900000011048447326728113065_);" d="M1266.645,1375.285
				c0-77.61,62.916-140.526,140.527-140.526h1195.044c65.93,0,120.294,51.667,123.646,117.511l88.211,1732.591
				c2.623,51.526-37.937,94.988-89.521,95.926l-1369.672,24.893c-48.469,0.881-88.236-38.169-88.236-86.647V1375.285z"/>
			<path style="fill:#FFFFFF;" d="M1555.062,3176.225c-0.014,0-0.029,0-0.043,0l-153.258-1.981
				c-51.247-0.665-92.938-42.899-92.938-94.147v-231.391c0-1.808,1.465-3.272,3.272-3.272c1.807,0,3.272,1.463,3.272,3.272v231.391
				c0,47.685,38.793,86.983,86.479,87.603l153.257,1.981c1.807,0.022,3.253,1.508,3.23,3.313
				C1558.308,3174.788,1556.848,3176.225,1555.062,3176.225z"/>
			<path style="fill:#FFFFFF;" d="M1312.094,2780.303c-1.807,0-3.272-1.463-3.272-3.272v-37.473c0-1.808,1.465-3.272,3.272-3.272
				c1.807,0,3.272,1.464,3.272,3.272v37.473C1315.366,2778.84,1313.901,2780.303,1312.094,2780.303z"/>
			<g>
				
					<linearGradient id="SVGID_00000098927770694849954150000000086056450605047724_" gradientUnits="userSpaceOnUse" x1="1258.8539" y1="3627.7185" x2="2818.4033" y2="724.6605">
					<stop  offset="0" style="stop-color:#A737D5"/>
					<stop  offset="1" style="stop-color:#EF497A"/>
				</linearGradient>
				<path style="fill:url(#SVGID_00000098927770694849954150000000086056450605047724_);" d="M1364.549,1261.427
					c-0.146-24.831,21.691-44.049,46.297-40.712c163.194,22.131,724.376,90.577,1188.355,54.96
					c21.159-1.624,39.522,14.407,40.648,35.599l92.494,1740.314c1.268,23.863-16.953,44.268-40.808,45.68
					c-195.141,11.548-998.791,56.19-1285.441,26.167c-17.446-1.828-30.689-16.516-30.792-34.057L1364.549,1261.427z"/>
				<path style="opacity:0.6;fill:#FFFFFF;" d="M1383.772,1305.038c-0.141-23.896,20.874-42.39,44.554-39.179
					c157.049,21.297,697.099,87.166,1143.607,52.89c20.362-1.563,38.033,13.865,39.117,34.259l89.011,1674.781
					c1.22,22.964-16.315,42.601-39.271,43.96c-187.792,11.113-961.181,54.074-1237.037,25.181
					c-16.789-1.759-29.533-15.894-29.632-32.775L1383.772,1305.038z"/>
				<g style="opacity:0.6;">
					<path style="fill:#FFFFFF;" d="M1646.583,1813.92c-8.401-0.351-14.254,6.165-13.005,14.481l1.854,12.348
						c1.249,8.315,9.151,15.119,17.559,15.119h221.724c8.409,0,15.203-6.879,15.098-15.287l-0.015-1.216
						c-0.105-8.408-7.064-15.575-15.466-15.926L1646.583,1813.92z"/>
				</g>
				<g style="opacity:0.6;">
					<path style="fill:#FFFFFF;" d="M2189.442,1813.006c-8.401-0.351-14.253,6.165-13.005,14.481l1.854,12.348
						c1.249,8.316,9.151,15.119,17.559,15.119h221.724c8.409,0,15.203-6.879,15.098-15.287l-0.015-1.216
						c-0.105-8.408-7.064-15.575-15.466-15.926L2189.442,1813.006z"/>
				</g>
				<path style="opacity:0.68;fill:#FFFFFF;" d="M2526.074,2306.098h-992.639c-2.485,0-4.5-2.015-4.5-4.5v-33.04
					c0-2.485,2.015-4.5,4.5-4.5h992.639c2.485,0,4.5,2.015,4.5,4.5v33.04C2530.574,2304.083,2528.559,2306.098,2526.074,2306.098z"
					/>
				<path style="opacity:0.68;fill:#FFFFFF;" d="M2266.96,2393.833h-733.525c-2.485,0-4.5-2.015-4.5-4.5v-33.04
					c0-2.485,2.015-4.5,4.5-4.5h733.525c2.485,0,4.5,2.015,4.5,4.5v33.04C2271.46,2391.818,2269.445,2393.833,2266.96,2393.833z"/>
				<path style="opacity:0.68;fill:#FFFFFF;" d="M2527.902,2220.191h-992.639c-2.485,0-4.5-2.015-4.5-4.5v-33.04
					c0-2.485,2.015-4.5,4.5-4.5h992.639c2.485,0,4.5,2.015,4.5,4.5v33.04C2532.402,2218.177,2530.387,2220.191,2527.902,2220.191z"
					/>
				<path style="opacity:0.68;fill:#FFFFFF;" d="M2521.573,2571.649h-992.639c-2.485,0-4.5-2.015-4.5-4.5v-33.04
					c0-2.485,2.015-4.5,4.5-4.5h992.639c2.485,0,4.5,2.015,4.5,4.5v33.04C2526.073,2569.634,2524.058,2571.649,2521.573,2571.649z"
					/>
				<path style="opacity:0.68;fill:#FFFFFF;" d="M2275.961,2659.384h-747.028c-2.485,0-4.5-2.015-4.5-4.5v-33.04
					c0-2.485,2.015-4.5,4.5-4.5h747.028c2.485,0,4.5,2.015,4.5,4.5v33.04C2280.461,2657.369,2278.447,2659.384,2275.961,2659.384z"
					/>
				<path style="opacity:0.68;fill:#FFFFFF;" d="M2523.401,2485.742h-992.639c-2.485,0-4.5-2.015-4.5-4.5v-33.04
					c0-2.485,2.015-4.5,4.5-4.5h992.639c2.485,0,4.5,2.015,4.5,4.5v33.04C2527.901,2483.727,2525.886,2485.742,2523.401,2485.742z"
					/>
				<path style="opacity:0.68;fill:#FFFFFF;" d="M2523.401,2752.417h-992.639c-2.485,0-4.5-2.015-4.5-4.5v-33.04
					c0-2.485,2.015-4.5,4.5-4.5h992.639c2.485,0,4.5,2.015,4.5,4.5v33.04C2527.901,2750.403,2525.886,2752.417,2523.401,2752.417z"
					/>
				<path style="opacity:0.68;fill:#FFFFFF;" d="M2518.763,1717.544h-992.639c-2.485,0-4.5-2.015-4.5-4.5v-33.04
					c0-2.485,2.015-4.5,4.5-4.5h992.639c2.485,0,4.5,2.015,4.5,4.5v33.04C2523.263,1715.529,2521.248,1717.544,2518.763,1717.544z"
					/>
				<path style="opacity:0.68;fill:#FFFFFF;" d="M2343.293,1541.16h-649.925c-2.485,0-4.5-2.015-4.5-4.5v-33.04
					c0-2.485,2.015-4.5,4.5-4.5h649.925c2.485,0,4.5,2.015,4.5,4.5v33.04C2347.793,1539.146,2345.778,1541.16,2343.293,1541.16z"/>
				<path style="opacity:0.68;fill:#FFFFFF;" d="M2520.591,1631.637h-992.64c-2.485,0-4.5-2.015-4.5-4.5v-33.04
					c0-2.485,2.015-4.5,4.5-4.5h992.64c2.485,0,4.5,2.015,4.5,4.5v33.04C2525.091,1629.622,2523.076,1631.637,2520.591,1631.637z"/>
				<g>
					<path style="opacity:0.68;fill:#FFFFFF;" d="M1980.508,2028.271h-445.351c-2.485,0-4.5-2.015-4.5-4.5v-33.04
						c0-2.485,2.015-4.5,4.5-4.5h445.351c2.485,0,4.5,2.015,4.5,4.5v33.04C1985.008,2026.257,1982.993,2028.271,1980.508,2028.271z"
						/>
					<path style="opacity:0.68;fill:#FFFFFF;" d="M1980.508,2108.695h-445.351c-2.485,0-4.5-2.015-4.5-4.5v-33.04
						c0-2.485,2.015-4.5,4.5-4.5h445.351c2.485,0,4.5,2.015,4.5,4.5v33.04C1985.008,2106.68,1982.993,2108.695,1980.508,2108.695z"
						/>
					<path style="opacity:0.68;fill:#FFFFFF;" d="M1978.751,1947.848H1533.4c-2.485,0-4.5-2.015-4.5-4.5v-33.04
						c0-2.485,2.015-4.5,4.5-4.5h445.351c2.485,0,4.5,2.015,4.5,4.5v33.04C1983.251,1945.833,1981.236,1947.848,1978.751,1947.848z"
						/>
				</g>
				<g>
					<path style="opacity:0.68;fill:#FFFFFF;" d="M2527.023,2030.099h-452.634c-2.485,0-4.5-2.015-4.5-4.5v-33.04
						c0-2.485,2.015-4.5,4.5-4.5h452.634c2.485,0,4.5,2.015,4.5,4.5v33.04C2531.523,2028.084,2529.508,2030.099,2527.023,2030.099z"
						/>
					<path style="opacity:0.68;fill:#FFFFFF;" d="M2527.023,2110.523h-452.634c-2.485,0-4.5-2.015-4.5-4.5v-33.04
						c0-2.485,2.015-4.5,4.5-4.5h452.634c2.485,0,4.5,2.015,4.5,4.5v33.04C2531.523,2108.508,2529.508,2110.523,2527.023,2110.523z"
						/>
					<path style="opacity:0.68;fill:#FFFFFF;" d="M2525.237,1949.676h-452.634c-2.485,0-4.5-2.015-4.5-4.5v-33.04
						c0-2.485,2.015-4.5,4.5-4.5h452.634c2.485,0,4.5,2.015,4.5,4.5v33.04C2529.737,1947.661,2527.723,1949.676,2525.237,1949.676z"
						/>
				</g>
			</g>
			
				<linearGradient id="SVGID_00000075880604881560319120000004956788687355661976_" gradientUnits="userSpaceOnUse" x1="2212.1414" y1="820.1476" x2="1662.4631" y2="1543.2363">
				<stop  offset="0" style="stop-color:#2B3582"/>
				<stop  offset="1" style="stop-color:#150E42"/>
			</linearGradient>
			<path style="fill:url(#SVGID_00000075880604881560319120000004956788687355661976_);" d="M2078.812,998.529
				c-43.167-30.03-80.701-29.435-107.123-21.639c-24.103,7.112-39.725,30.382-37.432,55.408l11.395,124.373l135.592,12.033
				C2081.243,1168.704,2163.468,1057.423,2078.812,998.529z M2019.183,1098.867c-18.672,0-33.809-15.136-33.809-33.809
				c0-18.673,15.137-33.81,33.809-33.81c18.673,0,33.81,15.137,33.81,33.81C2052.992,1083.731,2037.856,1098.867,2019.183,1098.867z
				"/>
			<path style="fill:#FFFFFF;" d="M1959.196,1104.353c-1.673,0-3.099-1.275-3.254-2.975l-1.815-19.807
				c-0.166-1.799,1.16-3.39,2.959-3.557c1.835-0.172,3.393,1.16,3.556,2.962l1.815,19.807c0.166,1.799-1.16,3.39-2.959,3.556
				C1959.395,1104.349,1959.295,1104.353,1959.196,1104.353z M1955.639,1065.537c-1.673,0-3.099-1.275-3.254-2.975l-1.379-15.036
				c-2.186-23.84,12.816-46.037,35.667-52.782c16.184-4.777,32.858-5.461,49.556-2.035c1.77,0.361,2.911,2.093,2.548,3.863
				c-0.363,1.767-2.078,2.898-3.862,2.547c-15.642-3.202-31.247-2.566-46.391,1.901c-19.863,5.863-32.903,25.172-31.003,45.912
				l1.379,15.036c0.166,1.799-1.16,3.39-2.959,3.557C1955.839,1065.534,1955.738,1065.537,1955.639,1065.537z"/>
			
				<linearGradient id="SVGID_00000000905384078933334530000004158935164347162531_" gradientUnits="userSpaceOnUse" x1="2272.4368" y1="865.9816" x2="1722.7581" y2="1589.0709">
				<stop  offset="0" style="stop-color:#2B3582"/>
				<stop  offset="1" style="stop-color:#150E42"/>
			</linearGradient>
			<path style="fill:url(#SVGID_00000000905384078933334530000004158935164347162531_);" d="M1760.592,1237.047v-62.531
				c0-21.586,17.891-38.874,39.464-38.135l431.123,14.771c19.133,0.655,34.627,15.758,35.773,34.868l3.603,60.083L1760.592,1237.047
				z"/>
			<path style="fill:#FFFFFF;" d="M1921.347,1159.943h-18.54c-1.807,0-3.272-1.463-3.272-3.272c0-1.809,1.465-3.272,3.272-3.272
				h18.54c1.807,0,3.272,1.463,3.272,3.272C1924.619,1158.479,1923.154,1159.943,1921.347,1159.943z"/>
			<path style="fill:#FFFFFF;" d="M1783.927,1217.412c-1.807,0-3.272-1.463-3.272-3.272v-25.296
				c0-19.545,15.901-35.445,35.446-35.445h68.163c1.807,0,3.272,1.463,3.272,3.272c0,1.808-1.465,3.272-3.272,3.272h-68.163
				c-15.936,0-28.902,12.966-28.902,28.901v25.296C1787.199,1215.949,1785.734,1217.412,1783.927,1217.412z"/>
			
				<linearGradient id="SVGID_00000003066276191482928400000003180595882828150163_" gradientUnits="userSpaceOnUse" x1="2009.4457" y1="685.7459" x2="2009.4457" y2="1623.4117">
				<stop  offset="0" style="stop-color:#CB236D"/>
				<stop  offset="1" style="stop-color:#4C246D"/>
			</linearGradient>
			<path style="fill:url(#SVGID_00000003066276191482928400000003180595882828150163_);" d="M1584.927,1252.837
				c1.04-21.653,18.899-38.675,40.578-38.676l753.9-0.021c27.108-0.001,50.284,19.507,54.907,46.218l0.638,3.686
				c5.065,29.257-17.461,56.017-47.153,56.017h-773.457c-17.77,0-31.93-14.857-31.077-32.607L1584.927,1252.837z"/>
			<g>
				<path style="fill:#FFFFFF;" d="M1837.026,2998.016c3.094-39.484,16.478-78.194,37.499-112.146
					c10.561-16.96,22.976-32.842,37.196-47.004c3.645-3.444,7.202-6.99,10.935-10.345c3.841-3.232,7.592-6.582,11.523-9.711
					c4.02-3.016,7.996-6.103,12.126-8.971l6.302-4.155l3.153-2.076l1.577-1.037c0.57-0.357,1.34-0.813,2.022-1.177
					c11.074-6.113,26.968-6.397,37.702,4.387c2.615,2.588,4.436,5.703,5.791,8.761c0.615,1.539,1.218,3.094,1.575,4.612
					c0.464,1.544,0.709,3.033,0.968,4.533c0.948,5.979,0.675,11.537,0.121,16.907c-0.283,2.682-0.72,5.313-1.189,7.877l-1.44,7.241
					c-0.921,4.835-2,9.638-3.057,14.445c-2.124,9.612-4.528,19.158-7.053,28.67c-10.276,38.001-23.883,75.1-40.712,110.674
					l-6.445,13.274c-2.255,4.372-4.455,8.771-6.757,13.118l-3.492,6.499l-1.746,3.249l-1.923,3.391
					c-2.662,4.512-5.635,8.891-9.097,13.058c-3.477,4.148-7.41,8.139-12.313,11.492c-4.857,3.315-10.982,6.007-17.778,6.337
					c-1.684,0.173-3.365-0.006-5.044-0.186c-1.704-0.09-3.263-0.642-4.88-1.023c-3.213-0.867-6.255-2.424-8.928-4.316
					c-5.386-3.818-9.254-9.105-11.651-14.802c-2.312-5.627-3.327-11.502-3.368-17.21c-0.069-5.71,0.787-11.146,1.959-16.275
					c1.198-5.144,2.683-9.955,4.324-14.665l2.418-7.106l2.723-6.992c7.303-18.631,16.966-36.257,28.255-52.695
					c11.248-16.483,24.531-31.515,39.153-45.035l2.733-2.546l2.849-2.419l5.704-4.822c1.941-1.559,3.937-3.051,5.902-4.578
					c1.98-1.509,3.914-3.076,5.984-4.463c4.082-2.852,8.119-5.761,12.38-8.34l3.155-1.992l1.577-0.995
					c0.281-0.172,0.485-0.317,0.829-0.512l1.04-0.581c2.807-1.477,5.878-2.465,9.05-2.798c6.313-0.745,13.132,1.134,18.042,5.615
					c2.528,2.23,4.556,5.426,5.478,8.713c0.972,3.303,0.938,6.475,0.655,9.333c-0.304,2.872-0.917,5.499-1.573,7.977l-1.977,7.078
					l-3.939,14.026c-5.21,18.712-10.63,37.369-15.94,56.054l-0.012,0.043l-8.202-1.466c0.611-6.287,2.303-12.638,5.774-18.34
					c1.768-2.829,3.924-5.452,6.638-7.632c2.713-2.219,5.862-3.769,9.181-4.752c3.335-0.934,6.9-1.272,10.47-0.682
					c1.777,0.29,3.555,0.788,5.23,1.575c0.854,0.355,1.647,0.844,2.445,1.316l1.654,1.04c4.015,2.259,9.025,2.684,13.143,0.869
					c1.041-0.415,1.996-1.01,2.901-1.665c0.43-0.36,0.891-0.681,1.276-1.098l0.623-0.605l0.747-0.797l5.977-6.375l11.954-12.75
					l11.954-12.75l5.977-6.375c1.469-1.548,3.574-2.908,5.919-3.377c2.342-0.498,4.773-0.166,6.841,0.774
					c2.075,0.939,3.867,2.473,5.09,4.478c1.227,1.997,1.76,4.508,1.482,6.802c-0.03,0.593-0.159,1.136-0.311,1.673
					c-0.136,0.511-0.326,1.177-0.427,1.422l-0.716,2.012l-1.356,4.05c-1.756,5.417-3.238,10.923-4.478,16.481
					c-1.229,5.561-2.205,11.177-2.906,16.828c-0.079,0.696-0.186,1.438-0.241,2.094l-0.052,1.726
					c-0.073,0.582,0.032,1.138,0.11,1.696c0.108,0.55,0.058,1.14,0.269,1.662c0.476,2.198,1.644,4.163,3.079,5.882
					c1.435,1.749,3.427,3.028,5.515,3.915c1.036,0.508,2.168,0.699,3.269,0.987c1.13,0.096,2.256,0.27,3.378,0.129
					c2.226-0.177,4.446-0.756,6.341-2.023l0.74-0.416l0.664-0.554l1.35-1.099l3.088-3.024c8.222-8.076,16.092-16.513,23.556-25.296
					c14.909-17.583,28.253-36.491,39.804-56.438l4.235-7.535l2.044-3.807l1.022-1.904l0.256-0.476
					c0.015-0.054-0.011-0.026,0.002-0.035c0.035-0.01-0.034,0.05-0.009,0.097c-0.011,0.321,0.129,0.384,0.094,0.355
					c0,0,0.061,0.042,0.191,0.028c0.126-0.027,0.297-0.059,0.297-0.084c0,0,0.004-0.003-0.018-0.002l-0.368,0.374l-0.736,0.747
					c-0.495,0.493-0.975,1.001-1.451,1.514c-0.965,1.012-1.888,2.063-2.811,3.115c-3.651,4.24-6.973,8.773-9.901,13.551
					c-1.462,2.39-2.834,4.835-4.111,7.329c-0.63,1.252-1.248,2.509-1.83,3.784l-0.858,1.918l-0.422,0.962l-0.278,0.862
					c-1.659,4.514-1.687,9.493,0.375,13.774c2.013,4.252,5.686,7.869,10.154,9.487c2.181,0.969,4.562,1.166,6.891,1.23
					c2.326-0.224,4.683-0.596,6.845-1.706l1.644-0.753l1.851-1.076c1.23-0.727,2.482-1.419,3.69-2.182
					c2.448-1.476,4.858-3.013,7.248-4.582c19.081-12.601,36.172-28.218,50.381-46.113l0.007-0.009
					c1.435-1.808,4.065-2.11,5.873-0.675c1.808,1.436,2.11,4.065,0.674,5.873c-14.774,18.607-32.519,34.816-52.327,47.898
					c-2.48,1.629-4.983,3.224-7.524,4.757c-1.256,0.791-2.554,1.51-3.832,2.265l-1.927,1.12l-2.316,1.094
					c-3.061,1.521-6.548,2.187-10.003,2.443c-3.465-0.023-6.997-0.425-10.191-1.788c-6.51-2.42-11.776-7.524-14.728-13.781
					c-3.033-6.265-3.014-13.858-0.619-20.199l0.416-1.209l0.455-1.038l0.926-2.07c0.629-1.375,1.295-2.732,1.975-4.083
					c1.377-2.692,2.857-5.331,4.437-7.91c3.161-5.157,6.747-10.054,10.698-14.642c0.998-1.138,1.998-2.275,3.043-3.372
					c0.515-0.555,1.035-1.105,1.572-1.64l0.797-0.809l0.399-0.405c0.257-0.233,0.542-0.475,0.823-0.699
					c1.153-0.882,2.71-1.568,4.308-1.62c1.585-0.082,3.102,0.32,4.377,1.031c2.515,1.369,4.398,4.31,4.146,7.566
					c-0.079,0.756-0.222,1.565-0.502,2.213c-0.129,0.326-0.287,0.694-0.421,0.972l-0.261,0.486l-1.044,1.946l-2.089,3.892
					l-4.328,7.701c-11.805,20.386-25.439,39.704-40.673,57.669c-7.627,8.973-15.667,17.595-24.07,25.848l-3.156,3.09l-2.022,1.679
					l-1.032,0.823l-1.149,0.681c-2.989,1.942-6.578,2.963-10.121,3.22c-1.791,0.185-3.562-0.023-5.33-0.227
					c-1.726-0.392-3.472-0.762-5.082-1.509c-3.243-1.368-6.277-3.375-8.587-6.114c-2.306-2.7-4.139-5.921-4.929-9.44
					c-0.291-0.856-0.297-1.758-0.445-2.639c-0.118-0.886-0.241-1.773-0.168-2.651l0.098-2.641l0.259-2.245
					c0.734-5.913,1.755-11.788,3.041-17.604c1.297-5.814,2.848-11.572,4.684-17.239l1.418-4.236l0.749-2.104
					c0.168-0.434,0.132-0.482,0.194-0.671c0.055-0.163,0.111-0.324,0.092-0.466c0.071-0.591-0.03-1.084-0.319-1.583
					c-0.295-0.489-0.81-0.939-1.388-1.194c-1.241-0.487-2.157-0.312-3.211,0.705l-5.977,6.375l-11.953,12.75l-11.954,12.75
					l-5.977,6.375l-0.747,0.797l-0.937,0.923c-0.62,0.643-1.339,1.183-2.037,1.744c-1.443,1.06-2.992,1.997-4.653,2.676
					c-6.626,2.888-14.415,2.177-20.528-1.284l-2.05-1.278c-0.462-0.257-0.9-0.554-1.401-0.748c-0.958-0.462-2.015-0.753-3.108-0.933
					c-2.189-0.372-4.558-0.165-6.826,0.468c-4.597,1.295-8.367,4.421-10.998,8.727c-2.613,4.275-4.067,9.456-4.57,14.736
					l-8.202-1.466l0.011-0.043c4.7-18.849,9.29-37.726,14.09-56.548l3.569-14.125l1.76-7.001c0.531-2.228,0.945-4.363,1.095-6.328
					c0.148-1.958,0.05-3.745-0.424-5.098c-0.463-1.368-1.159-2.406-2.287-3.373c-2.358-2.036-5.748-2.935-9.048-2.447
					c-1.654,0.213-3.276,0.798-4.737,1.617l-0.541,0.322l-0.707,0.465l-1.477,0.989l-2.953,1.976
					c-3.99,2.554-7.758,5.432-11.567,8.24c-1.934,1.366-3.733,2.91-5.577,4.393c-1.83,1.502-3.688,2.966-5.494,4.494l-5.298,4.725
					l-2.653,2.355l-2.556,2.462c-13.677,13.063-26.056,27.524-36.453,43.31c-10.439,15.74-19.306,32.542-25.895,50.202l-2.461,6.622
					l-2.163,6.721c-1.489,4.482-2.785,8.989-3.716,13.323c-1.921,8.675-1.985,17.001,0.964,23.781
					c1.416,3.214,3.612,5.983,6.213,7.735c1.304,0.876,2.66,1.567,4.155,1.899c1.511,0.386,2.976,0.621,4.457,0.469
					c2.937-0.166,6.093-1.394,9.214-3.552c3.116-2.153,6.09-5.132,8.806-8.444c2.72-3.326,5.201-7.022,7.439-10.892l1.645-2.959
					l1.675-3.181l3.351-6.361c2.208-4.254,4.316-8.56,6.479-12.836l6.173-12.985c16.028-34.825,29.221-70.958,39.13-107.982
					c2.432-9.267,4.748-18.565,6.789-27.925c1.015-4.681,2.054-9.357,2.936-14.066l1.382-7.05c0.396-2.212,0.75-4.376,0.968-6.525
					c0.442-4.268,0.569-8.514-0.048-12.137c-0.604-3.639-1.786-6.563-3.468-8.197c-0.776-0.93-1.845-1.508-3.035-2.128
					c-1.342-0.487-2.697-1.003-4.196-1.064c-2.944-0.264-6.197,0.427-9.105,1.987c-0.388,0.206-0.667,0.366-1.127,0.648l-1.47,0.957
					l-2.942,1.913l-5.887,3.821c-3.873,2.626-7.55,5.537-11.374,8.242c-3.723,2.842-7.279,5.904-10.935,8.842
					c-3.55,3.064-6.938,6.318-10.422,9.465c-13.501,13.054-25.726,27.512-36.232,43.189
					c-21.105,31.295-35.629,67.191-42.062,104.871c-0.385,2.279-2.544,3.814-4.823,3.429
					C1838.355,3002.107,1836.87,3000.145,1837.026,2998.016z"/>
				<path style="fill:#FFFFFF;" d="M2271.992,2870.927c-1.392,0-2.752-0.695-3.546-1.961c-1.226-1.956-0.634-4.536,1.323-5.762
					l41.761-26.16c1.955-1.227,4.536-0.635,5.761,1.323c1.226,1.957,0.633,4.536-1.324,5.761l-41.759,26.161
					C2273.518,2870.72,2272.75,2870.927,2271.992,2870.927z"/>
			</g>
		</g>
		<g>
			
				<linearGradient id="SVGID_00000161617760409573616210000017270105040058288277_" gradientUnits="userSpaceOnUse" x1="2909.0144" y1="2778.6965" x2="3261.4277" y2="2778.6965">
				<stop  offset="0" style="stop-color:#A737D5"/>
				<stop  offset="1" style="stop-color:#EF497A"/>
			</linearGradient>
			<path style="fill:url(#SVGID_00000161617760409573616210000017270105040058288277_);" d="M3247.54,2379.484
				c-0.098-5.596-4.375-10.1-9.617-10.1h-317.953c-5.313,0-10.955,4.642-10.955,10.315v792.373c0,4.234,2.246,8.294,5.054,11.284
				c2.808,2.99,6.948,4.664,10.914,4.652l321.436-0.937c4-0.012,7.911-1.737,10.709-4.79c2.798-3.053,4.373-7.187,4.298-11.458
				L3247.54,2379.484z"/>
			<g>
				<polygon style="fill:#FFFFFF;" points="3064.944,2425.538 2960.934,2425.154 2960.972,2411.258 3064.866,2411.608 				"/>
				<polygon style="fill:#FFFFFF;" points="3065.229,2476.723 2960.791,2476.214 2960.83,2462.203 3065.15,2462.678 				"/>
				<polygon style="fill:#FFFFFF;" points="3065.517,2528.331 2960.647,2527.695 2960.687,2513.569 3065.437,2514.17 				"/>
				<polygon style="fill:#FFFFFF;" points="3065.806,2580.367 2960.503,2579.604 2960.542,2565.36 3065.727,2566.089 				"/>
				<polygon style="fill:#FFFFFF;" points="3066.098,2632.837 2960.356,2631.942 2960.397,2617.58 3066.018,2618.439 				"/>
				<polygon style="fill:#FFFFFF;" points="3066.69,2739.099 2960.061,2737.936 2960.102,2723.333 3066.609,2724.458 				"/>
				<polygon style="fill:#FFFFFF;" points="3067.598,2901.884 2959.607,2900.302 2959.649,2885.325 3067.514,2886.867 				"/>
				<polygon style="fill:#FFFFFF;" points="3066.393,2685.746 2960.209,2684.718 2960.25,2670.236 3066.313,2671.227 				"/>
				<polygon style="fill:#FFFFFF;" points="3066.99,2792.903 2959.911,2791.603 2959.952,2776.876 3066.908,2778.139 				"/>
				<polygon style="fill:#FFFFFF;" points="3067.292,2847.163 2959.76,2845.723 2959.801,2830.872 3067.21,2832.273 				"/>
				<polygon style="fill:#FFFFFF;" points="3067.905,2957.073 2959.454,2955.347 2959.496,2940.241 3067.821,2941.927 				"/>
				<polygon style="fill:#FFFFFF;" points="3068.215,3012.735 2959.299,3010.862 2959.342,2995.627 3068.13,2997.46 				"/>
				<polygon style="fill:#FFFFFF;" points="3068.528,3068.879 2959.143,3066.857 2959.185,3051.49 3068.442,3053.471 				"/>
				<polygon style="fill:#FFFFFF;" points="3068.844,3125.507 2958.985,3123.334 2959.028,3107.834 3068.757,3109.966 				"/>
				<polygon style="fill:#FFFFFF;" points="3201.309,2426.042 3096.646,2425.655 3096.533,2411.715 3201.078,2412.068 				"/>
				<polygon style="fill:#FFFFFF;" points="3202.158,2477.39 3097.062,2476.878 3096.948,2462.823 3201.925,2463.3 				"/>
				<polygon style="fill:#FFFFFF;" points="3203.014,2529.164 3097.481,2528.524 3097.367,2514.353 3202.779,2514.957 				"/>
				<polygon style="fill:#FFFFFF;" points="3203.877,2581.369 3097.904,2580.6 3097.788,2566.311 3203.64,2567.044 				"/>
				<polygon style="fill:#FFFFFF;" points="3204.747,2634.01 3098.331,2633.11 3098.214,2618.701 3204.508,2619.565 				"/>
				<polygon style="fill:#FFFFFF;" points="3206.51,2740.624 3099.194,2739.453 3099.075,2724.802 3206.267,2725.934 				"/>
				<polygon style="fill:#FFFFFF;" points="3209.21,2903.958 3100.517,2902.366 3100.395,2887.337 3208.961,2888.89 				"/>
				<polygon style="fill:#FFFFFF;" points="3205.625,2687.093 3098.76,2686.059 3098.643,2671.529 3205.384,2672.527 				"/>
				<polygon style="fill:#FFFFFF;" points="3207.402,2794.608 3099.631,2793.3 3099.511,2778.524 3207.157,2779.794 				"/>
				<polygon style="fill:#FFFFFF;" points="3208.302,2849.051 3100.072,2847.602 3099.951,2832.7 3208.056,2834.111 				"/>
				<polygon style="fill:#FFFFFF;" points="3210.126,2959.337 3100.966,2957.599 3100.842,2942.442 3209.875,2944.139 				"/>
				<polygon style="fill:#FFFFFF;" points="3211.05,3015.191 3101.418,3013.306 3101.294,2998.019 3210.796,2999.863 				"/>
				<polygon style="fill:#FFFFFF;" points="3211.981,3071.531 3101.874,3069.496 3101.749,3054.076 3211.726,3056.07 				"/>
				<polygon style="fill:#FFFFFF;" points="3212.92,3128.359 3102.334,3126.17 3102.208,3110.616 3212.663,3112.763 				"/>
			</g>
		</g>
		<g>
			
				<linearGradient id="SVGID_00000127017926203191234800000015390991058545303219_" gradientUnits="userSpaceOnUse" x1="-120.8729" y1="2222.24" x2="-303.4851" y2="2222.24" gradientTransform="matrix(-1 0 0 1 967.5685 0)">
				<stop  offset="0" style="stop-color:#F9B776"/>
				<stop  offset="1" style="stop-color:#F47960"/>
			</linearGradient>
			<path style="fill:url(#SVGID_00000127017926203191234800000015390991058545303219_);" d="M1271.054,2184.831
				c0,0-67.827,156.525-109.567,135.655c-41.74-20.871-73.045-193.047-73.045-193.047S1218.879,2096.134,1271.054,2184.831z"/>
			
				<linearGradient id="SVGID_00000135664481572210139310000010305713720392240002_" gradientUnits="userSpaceOnUse" x1="2530.4307" y1="2876.9719" x2="2534.3352" y2="3306.4382" gradientTransform="matrix(1 0 0 1 -1410.7297 0)">
				<stop  offset="0" style="stop-color:#CB236D"/>
				<stop  offset="1" style="stop-color:#4C246D"/>
			</linearGradient>
			<path style="fill:url(#SVGID_00000135664481572210139310000010305713720392240002_);" d="M1034.896,3156.152
				c0,0-5.67,32.101-8.449,63.876c-1.087,12.418,8.488,23.202,20.942,23.721c42.316,1.762,132.832,5.189,165.313,3.74
				c4.883-0.218,8.075-5.217,6.268-9.758c-1.514-3.805-4.436-6.882-8.156-8.593l-149.517-68.717L1034.896,3156.152z"/>
			
				<linearGradient id="SVGID_00000086670237867681570510000003977694098951136148_" gradientUnits="userSpaceOnUse" x1="2440.9805" y1="3156.0198" x2="2489.614" y2="3156.0198" gradientTransform="matrix(1 0 0 1 -1410.7297 0)">
				<stop  offset="0" style="stop-color:#F9B776"/>
				<stop  offset="1" style="stop-color:#F47960"/>
			</linearGradient>
			<path style="fill:url(#SVGID_00000086670237867681570510000003977694098951136148_);" d="M1030.251,3137.291l4.555,38.396
				c0,0,26.191,12.192,44.078-1.537l-10.846-42.789L1030.251,3137.291z"/>
			
				<linearGradient id="SVGID_00000030466536860250684230000003460798014579099806_" gradientUnits="userSpaceOnUse" x1="2386.0295" y1="3341.0696" x2="2419.2224" y2="2450.4094" gradientTransform="matrix(1 0 0 1 -1410.7297 0)">
				<stop  offset="0" style="stop-color:#2B3582"/>
				<stop  offset="1" style="stop-color:#150E42"/>
			</linearGradient>
			<path style="fill:url(#SVGID_00000030466536860250684230000003460798014579099806_);" d="M1033.674,2415.429
				c-1.968,10.026-10.562,500.369,41.852,720.108c0.854,3.585-0.962,7.281-4.375,8.675c-8.039,3.284-23.798,8.041-42.687,8.675
				c-5.849,0.196-11.094-3.604-12.743-9.22c-14.983-50.982-86.775-306.421-96.141-550.434c-10.465-272.66,0-9.283,0-9.283
				l6.137-168.542L1033.674,2415.429z"/>
			
				<linearGradient id="SVGID_00000109713176474255703680000008247066980625942444_" gradientUnits="userSpaceOnUse" x1="2291.3586" y1="2879.1472" x2="2295.2632" y2="3308.6118" gradientTransform="matrix(1 0 0 1 -1410.7297 0)">
				<stop  offset="0" style="stop-color:#CB236D"/>
				<stop  offset="1" style="stop-color:#4C246D"/>
			</linearGradient>
			<path style="fill:url(#SVGID_00000109713176474255703680000008247066980625942444_);" d="M862.903,3172.898
				c0,0-9.026,16.206-17.764,59.267c-1.577,7.777,3.856,15.22,11.753,15.996c13.973,1.374,35.483,3.141,52.715,3.022
				c7.943-0.054,14.141-6.971,13.184-14.856c-1.909-15.718-7.855-41.506-26.222-61.605L862.903,3172.898z"/>
			
				<linearGradient id="SVGID_00000019673122108978520360000011969772885287317693_" gradientUnits="userSpaceOnUse" x1="2265.7056" y1="3153.5259" x2="2307.6958" y2="3153.5259" gradientTransform="matrix(1 0 0 1 -1410.7297 0)">
				<stop  offset="0" style="stop-color:#F9B776"/>
				<stop  offset="1" style="stop-color:#F47960"/>
			</linearGradient>
			<path style="fill:url(#SVGID_00000019673122108978520360000011969772885287317693_);" d="M854.976,3123.512l10.645,58.065
				c0,0,10.525,7.829,31.346,2.153l-5.081-62.474L854.976,3123.512z"/>
			
				<linearGradient id="SVGID_00000033352876227894206030000008615167102576597136_" gradientUnits="userSpaceOnUse" x1="2303.9385" y1="3338.0107" x2="2337.1313" y2="2447.3523" gradientTransform="matrix(1 0 0 1 -1410.7297 0)">
				<stop  offset="0" style="stop-color:#2B3582"/>
				<stop  offset="1" style="stop-color:#150E42"/>
			</linearGradient>
			<path style="fill:url(#SVGID_00000033352876227894206030000008615167102576597136_);" d="M826.219,2430.476
				c-42.868,258.708,9.299,639.42,26.893,713.934c1.076,4.562,4.758,8.057,9.383,8.824c7.853,1.302,20.782,2.364,33.529-1.338
				c4.392-1.275,7.478-5.236,7.657-9.807c2.36-60.243-1.888-430.074,38.054-576.233c2.025-7.407,6.549-13.867,12.806-18.315
				l77.527-55.115l5.943-89.088L826.219,2430.476z"/>
			<g>
				
					<linearGradient id="SVGID_00000023281854231876719930000013799724861942252429_" gradientUnits="userSpaceOnUse" x1="116.9591" y1="2115.0737" x2="-318.4756" y2="2444.1814" gradientTransform="matrix(-1 0 0 1 967.5685 0)">
					<stop  offset="0" style="stop-color:#FDF53F"/>
					<stop  offset="1" style="stop-color:#D93C65"/>
				</linearGradient>
				<path style="fill:url(#SVGID_00000023281854231876719930000013799724861942252429_);" d="M1104.094,1950.044
					c-156.524-15.653-274.935,23.96-274.935,23.96c-38.293,223.438-6.696,481.159-6.696,481.159
					c99.455,26.082,211.646-15.947,211.646-15.947c16.529-93.391,93.654-356.227,93.654-356.227
					C1190.531,2075.199,1143.526,1953.988,1104.094,1950.044z"/>
			</g>
			
				<linearGradient id="SVGID_00000100353390829542248040000009064672222063434886_" gradientUnits="userSpaceOnUse" x1="126.7716" y1="2128.0562" x2="-308.6646" y2="2457.1648" gradientTransform="matrix(-1 0 0 1 967.5685 0)">
				<stop  offset="0" style="stop-color:#FDF53F"/>
				<stop  offset="1" style="stop-color:#D93C65"/>
			</linearGradient>
			<path style="fill:url(#SVGID_00000100353390829542248040000009064672222063434886_);" d="M878.433,2098.397l-49.274-124.393
				c0,0-119.994,81.531-139.728,184.903c22.673,1.67,63.929,7.567,104.313,27.958
				C802.618,2138.054,878.433,2098.397,878.433,2098.397z"/>
			
				<linearGradient id="SVGID_00000086650687766870581800000009116032010934419647_" gradientUnits="userSpaceOnUse" x1="2098.7441" y1="2239.168" x2="2422.2881" y2="2239.168" gradientTransform="matrix(1 0 0 1 -1410.7297 0)">
				<stop  offset="0" style="stop-color:#F9B776"/>
				<stop  offset="1" style="stop-color:#F47960"/>
			</linearGradient>
			<path style="fill:url(#SVGID_00000086650687766870581800000009116032010934419647_);" d="M993.73,2215.447
				c0,0-141.841,75.938-187.298,10.925c-9.438-13.499-14.702-29.967-12.377-42.758c-40.384-20.391-81.949-23.036-104.623-24.706
				c-5.95,31.164,7.63,64.308,25.943,97.806c79.627,145.66,296.185-8.05,296.185-8.05L993.73,2215.447z"/>
			<g>
				
					<linearGradient id="SVGID_00000177454064753218117740000009189240313493371038_" gradientUnits="userSpaceOnUse" x1="-71.7494" y1="1928.5505" x2="-209.405" y2="2251.5125" gradientTransform="matrix(-1 0 0 1 967.5685 0)">
					<stop  offset="0" style="stop-color:#2B3582"/>
					<stop  offset="1" style="stop-color:#150E42"/>
				</linearGradient>
				<path style="fill:url(#SVGID_00000177454064753218117740000009189240313493371038_);" d="M977.542,2311.771l73.528-256.773
					c0.835-2.915,3.321-5.041,6.333-5.392c13.322-1.554,51.923-5.918,96.492-9.688c53.686-4.541,116.03-8.221,153.285-5.09
					c5.296,0.445,8.496,6.047,6.141,10.812c-21.185,42.861-108.329,217.208-151.968,274.323c-1.446,1.893-3.682,2.999-6.062,2.976
					l-170.594-1.587C979.731,2321.305,976.176,2316.543,977.542,2311.771z"/>
				
					<linearGradient id="SVGID_00000084490145512117154760000012055522675256764346_" gradientUnits="userSpaceOnUse" x1="2625.6619" y1="1902.0656" x2="2588.8398" y2="2063.761" gradientTransform="matrix(1 0 0 1 -1410.7297 0)">
					<stop  offset="0" style="stop-color:#2B3582"/>
					<stop  offset="1" style="stop-color:#150E42"/>
				</linearGradient>
				<path style="fill:url(#SVGID_00000084490145512117154760000012055522675256764346_);" d="M1161.521,2017.657l53.308-8.882
					c2.839-0.473,5.165,2.24,4.262,4.973l-5.277,15.991c-0.459,1.392-1.673,2.399-3.126,2.594l-51.298,6.853
					c-2.654,0.354-4.842-2.058-4.232-4.665l3.267-13.961C1158.776,2019.056,1159.998,2017.911,1161.521,2017.657z"/>
				
					<linearGradient id="SVGID_00000002348958561313987030000004807836863305525419_" gradientUnits="userSpaceOnUse" x1="2606.3911" y1="1969.8927" x2="2588.781" y2="2075.5542" gradientTransform="matrix(1 0 0 1 -1410.7297 0)">
					<stop  offset="0" style="stop-color:#2B3582"/>
					<stop  offset="1" style="stop-color:#150E42"/>
				</linearGradient>
				<path style="fill:url(#SVGID_00000002348958561313987030000004807836863305525419_);" d="M1121.605,2062.788l4.391-22.876
					c0.441-2.294,2.335-4.027,4.659-4.264l107.67-10.926c3.624-0.367,6.527,2.954,5.676,6.495l-6.846,28.505
					c-0.548,2.28-2.533,3.927-4.876,4.045l-105.216,5.297C1123.64,2069.238,1120.959,2066.155,1121.605,2062.788z"/>
				
					<linearGradient id="SVGID_00000129200666018706053170000011859413795040725382_" gradientUnits="userSpaceOnUse" x1="2398.9431" y1="2206.2" x2="2496.9009" y2="2206.2" gradientTransform="matrix(1 0 0 1 -1410.7297 0)">
					<stop  offset="0" style="stop-color:#F9B776"/>
					<stop  offset="1" style="stop-color:#F47960"/>
				</linearGradient>
				<path style="fill:url(#SVGID_00000129200666018706053170000011859413795040725382_);" d="M995.306,2249.734
					c0,0-10.242-42.115-6.111-57.058c4.132-14.942,12.137-34.153,38.819-29.885c26.682,4.27,58.157,15.51,58.157,15.51
					s-1.59,19.463-21.869,13.183l12.576,9.731c0,0-1.798,15.583-18.928,7.258l11.696,12.904c0,0-7.356,12.8-19.958,4.59
					C1037.087,2217.757,1031.045,2254.806,995.306,2249.734z"/>
				
					<linearGradient id="SVGID_00000108293827680330362800000011499029280183130033_" gradientUnits="userSpaceOnUse" x1="-412.9668" y1="1282.4404" x2="-315.0047" y2="1282.4404" gradientTransform="matrix(-0.8472 -0.5312 -0.5312 0.8472 1629.1906 848.1048)">
					<stop  offset="0" style="stop-color:#F9B776"/>
					<stop  offset="1" style="stop-color:#F47960"/>
				</linearGradient>
				<path style="fill:url(#SVGID_00000108293827680330362800000011499029280183130033_);" d="M1268.688,2187.072
					c0,0,31.05-30.242,35.488-45.095c4.437-14.854,7.86-35.383-17.014-45.941c-24.873-10.556-57.512-17.753-57.512-17.753
					s-8.991,17.334,11.526,22.786l-15.824,1.564c0,0-6.754,14.158,12.18,16.204l-16.764,4.719c0,0-0.568,14.752,14.47,14.491
					S1235.715,2172.384,1268.688,2187.072z"/>
			</g>
			
				<linearGradient id="SVGID_00000167369573354232301120000008291116944028512664_" gradientUnits="userSpaceOnUse" x1="2354.5146" y1="1912.74" x2="2478.8298" y2="1912.74" gradientTransform="matrix(1 0 0 1 -1410.7297 0)">
				<stop  offset="0" style="stop-color:#F9B776"/>
				<stop  offset="1" style="stop-color:#F47960"/>
			</linearGradient>
			<path style="fill:url(#SVGID_00000167369573354232301120000008291116944028512664_);" d="M984.899,1845.694l-40.876,118.211
				c-0.677,1.958,0.128,4.127,1.941,5.129c11.143,6.16,51.287,23.968,99.662-6.704c5.04-3.194,8.47-8.406,9.236-14.324
				l13.237-102.311H984.899z"/>
			<g>
				
					<linearGradient id="SVGID_00000134970199889988018430000018440778676069735865_" gradientUnits="userSpaceOnUse" x1="-3709.0715" y1="223.8" x2="-3755.5264" y2="70.5809" gradientTransform="matrix(0.746 -0.6659 0.6659 0.746 3715.6057 -803.1727)">
					<stop  offset="0" style="stop-color:#F9B776"/>
					<stop  offset="1" style="stop-color:#F47960"/>
				</linearGradient>
				<path style="fill:url(#SVGID_00000134970199889988018430000018440778676069735865_);" d="M1073.84,1736.228
					c0,0,44.885,84.493,39.131,118.624c-5.753,34.131-61.383,31.681-109.96,3.96l-33.944-91.233L1073.84,1736.228z"/>
				
					<linearGradient id="SVGID_00000118357629098574430920000012737812990851256208_" gradientUnits="userSpaceOnUse" x1="-3750.9836" y1="-43.1624" x2="-3712.1243" y2="178.4798" gradientTransform="matrix(0.746 -0.6659 0.6659 0.746 3715.6057 -803.1727)">
					<stop  offset="0" style="stop-color:#2B3582"/>
					<stop  offset="1" style="stop-color:#150E42"/>
				</linearGradient>
				<path style="fill:url(#SVGID_00000118357629098574430920000012737812990851256208_);" d="M1005.159,1814.008
					c1.974-0.875,2.702-3.291,1.52-5.097c-3.596-5.494-10.337-16.701-12.488-26.514c0,0-8.069-5.168,20.538-12.015
					c28.606-6.848,71.267-17.476,80.233-41.825c8.743-23.741-14.227-83.444-50.874-35.873c-1.394,1.81-4.125,1.85-5.518,0.038
					c-6.008-7.819-21.802-24.049-43.73-14.209c-20.521,9.208-22.831,24.245-22.55,31.824c0.082,2.229-1.911,3.962-4.103,3.545
					c-10.375-1.979-35.272-3.678-46.893,21.862c-9.572,21.037-3.351,32.946,2.315,38.77c1.836,1.887,1.032,4.995-1.485,5.765
					c-6.819,2.087-15.624,7.869-14.742,23.844c1.218,22.085,25.911,20.14,32.94,19.132c1.153-0.164,2.313,0.231,3.093,1.093
					c6.028,6.671,33.187,34.995,62.581,38.409c2.545,0.296,4.517-2.218,3.684-4.64l-12.722-36.978
					c-0.59-1.717,0.232-3.601,1.893-4.337L1005.159,1814.008z"/>
				
					<linearGradient id="SVGID_00000008846944934447807150000016551263058906338701_" gradientUnits="userSpaceOnUse" x1="-3756.5605" y1="223.0858" x2="-3798.3562" y2="85.2336" gradientTransform="matrix(0.746 -0.6659 0.6659 0.746 3715.6057 -803.1727)">
					<stop  offset="0" style="stop-color:#F9B776"/>
					<stop  offset="1" style="stop-color:#F47960"/>
				</linearGradient>
				<path style="fill:url(#SVGID_00000008846944934447807150000016551263058906338701_);" d="M1010.272,1819.257
					c0,0-31.959-21.928-34.293-3.462c-2.336,18.466,28.778,26.746,44.19,19.863L1010.272,1819.257z"/>
			</g>
		</g>
		<g>
			<g>
				
					<linearGradient id="SVGID_00000060003830625387139710000009029398576738886075_" gradientUnits="userSpaceOnUse" x1="2675.6782" y1="1996.0377" x2="2674.0088" y2="2093.7083">
					<stop  offset="0" style="stop-color:#41A362"/>
					<stop  offset="1" style="stop-color:#204F2E"/>
				</linearGradient>
				<path style="fill:url(#SVGID_00000060003830625387139710000009029398576738886075_);" d="M2549.082,2098.792l-4.052-54.029
					c-1.507-20.094,13.143-37.761,33.165-40.028c45.825-5.19,126.776-11.777,189.592-2.942
					c20.754,2.919,36.112,20.813,36.112,41.771v55.228h-55.881l1.883-28.247c1.522-22.827-15.401-42.753-38.184-44.837
					c-23.828-2.179-56.004-3.03-90.76,1.97c-22.033,3.169-36.563,24.604-31.164,46.199l6.229,24.915H2549.082z"/>
				
					<linearGradient id="SVGID_00000147934235261509178550000012598317398944403867_" gradientUnits="userSpaceOnUse" x1="2435.2241" y1="3077.1204" x2="2831.7073" y2="2364.6902" gradientTransform="matrix(0.9995 0.0326 -0.0326 0.9995 89.2385 -51.3102)">
					<stop  offset="0" style="stop-color:#41A362"/>
					<stop  offset="1" style="stop-color:#204F2E"/>
				</linearGradient>
				<polygon style="fill:url(#SVGID_00000147934235261509178550000012598317398944403867_);" points="2988.811,3162.044 
					2388.299,3149.324 2345.571,2231.117 3020.426,2191.524 				"/>
				
					<linearGradient id="SVGID_00000039834597487111143380000015349374747519048601_" gradientUnits="userSpaceOnUse" x1="2692.9539" y1="1911.1177" x2="2668.1711" y2="2134.1619" gradientTransform="matrix(0.9995 0.0326 -0.0326 0.9995 89.2385 -51.3102)">
					<stop  offset="0" style="stop-color:#41A362"/>
					<stop  offset="1" style="stop-color:#204F2E"/>
				</linearGradient>
				<path style="fill:url(#SVGID_00000039834597487111143380000015349374747519048601_);" d="M3021.017,2173.381l-674.5,28.693
					l74.045-92.733c14.023-17.562,37.175-28.204,62.202-28.59l407.231-6.283c13.995-0.216,27.495,4.667,37.117,13.426
					L3021.017,2173.381z"/>
				
					<linearGradient id="SVGID_00000176726463326127257520000013375815230760909988_" gradientUnits="userSpaceOnUse" x1="2632.3013" y1="3587.7427" x2="2739.2458" y2="2874.7805" gradientTransform="matrix(0.9995 0.0326 -0.0326 0.9995 89.2385 -51.3102)">
					<stop  offset="0" style="stop-color:#41A362"/>
					<stop  offset="1" style="stop-color:#204F2E"/>
				</linearGradient>
				<path style="fill:url(#SVGID_00000176726463326127257520000013375815230760909988_);" d="M2388.299,3149.324l600.513,12.72
					l-108.958,82.099c-8.384,6.318-18.472,9.736-28.826,9.768L2505.276,3255c-13.629,0.042-26.651-5.777-35.958-16.071
					L2388.299,3149.324z"/>
				
					<linearGradient id="SVGID_00000098912712415837066590000009828667112788088467_" gradientUnits="userSpaceOnUse" x1="2261.5581" y1="2175.0471" x2="3070.7932" y2="2175.0471" gradientTransform="matrix(0.9995 0.0326 -0.0326 0.9995 89.2385 -51.3102)">
					<stop  offset="0" style="stop-color:#41A362"/>
					<stop  offset="1" style="stop-color:#204F2E"/>
				</linearGradient>
				<path style="fill:url(#SVGID_00000098912712415837066590000009828667112788088467_);" d="M2278.428,2232.971l16.133-48.265
					c4.044-12.099,19.099-20.668,36.906-21.007l694.713-13.22c19.52-0.371,36.897,9.211,41.082,22.656l18.823,60.467
					c5.377,17.272-12.924,33.33-38.025,33.365l-729.669,1.018C2292.234,2268.022,2272.493,2250.726,2278.428,2232.971z"/>
				
					<linearGradient id="SVGID_00000098907006471955857370000009381471583469657769_" gradientUnits="userSpaceOnUse" x1="2537.8643" y1="1959.4594" x2="2443.0613" y2="2812.6851">
					<stop  offset="0" style="stop-color:#41A362"/>
					<stop  offset="1" style="stop-color:#204F2E"/>
				</linearGradient>
				<path style="fill:url(#SVGID_00000098907006471955857370000009381471583469657769_);" d="M2469.276,3129.237L2469.276,3129.237
					c-5.373,0-9.795-4.227-10.038-9.594l-34.855-771.178c-0.259-5.722,4.311-10.502,10.038-10.502l0,0
					c5.373,0,9.795,4.227,10.038,9.595l34.855,771.178C2479.573,3124.457,2475.004,3129.237,2469.276,3129.237z"/>
				
					<linearGradient id="SVGID_00000090275698595867752150000013527311927437285261_" gradientUnits="userSpaceOnUse" x1="2635.6277" y1="1945.8152" x2="2540.8247" y2="2799.0425" gradientTransform="matrix(0.9999 0.0143 -0.0143 0.9999 39.7376 -22.5448)">
					<stop  offset="0" style="stop-color:#41A362"/>
					<stop  offset="1" style="stop-color:#204F2E"/>
				</linearGradient>
				<path style="fill:url(#SVGID_00000090275698595867752150000013527311927437285261_);" d="M2561.956,3129.446L2561.956,3129.446
					c-5.373-0.077-9.734-4.367-9.899-9.738l-23.802-771.598c-0.177-5.725,4.46-10.439,10.188-10.357l0,0
					c5.373,0.077,9.734,4.367,9.9,9.738l23.802,771.598C2572.32,3124.814,2567.683,3129.528,2561.956,3129.446z"/>
				
					<linearGradient id="SVGID_00000049923817120221996970000006341733599486276995_" gradientUnits="userSpaceOnUse" x1="277.8805" y1="1959.4595" x2="183.0775" y2="2812.6851" gradientTransform="matrix(-1 0 0 1 3116.5273 0)">
					<stop  offset="0" style="stop-color:#41A362"/>
					<stop  offset="1" style="stop-color:#204F2E"/>
				</linearGradient>
				<path style="fill:url(#SVGID_00000049923817120221996970000006341733599486276995_);" d="M2907.235,3129.237L2907.235,3129.237
					c5.373,0,9.795-4.227,10.038-9.594l34.855-771.178c0.259-5.722-4.31-10.502-10.038-10.502l0,0
					c-5.373,0-9.796,4.227-10.038,9.595l-34.856,771.178C2896.938,3124.457,2901.507,3129.237,2907.235,3129.237z"/>
				
					<linearGradient id="SVGID_00000085223440989560853790000008563286716993763223_" gradientUnits="userSpaceOnUse" x1="375.8798" y1="1978.1328" x2="281.0767" y2="2831.3601" gradientTransform="matrix(-0.9999 0.0143 0.0143 0.9999 3076.7898 -22.5448)">
					<stop  offset="0" style="stop-color:#41A362"/>
					<stop  offset="1" style="stop-color:#204F2E"/>
				</linearGradient>
				<path style="fill:url(#SVGID_00000085223440989560853790000008563286716993763223_);" d="M2814.555,3129.446L2814.555,3129.446
					c5.373-0.077,9.734-4.367,9.9-9.738l23.802-771.598c0.177-5.725-4.461-10.439-10.188-10.357l0,0
					c-5.373,0.077-9.734,4.367-9.899,9.738l-23.802,771.598C2804.191,3124.814,2808.828,3129.528,2814.555,3129.446z"/>
				
					<linearGradient id="SVGID_00000093172829348133577460000016296060461812944314_" gradientUnits="userSpaceOnUse" x1="2766.1741" y1="1972.2676" x2="2672.2554" y2="2817.5356">
					<stop  offset="0" style="stop-color:#41A362"/>
					<stop  offset="1" style="stop-color:#204F2E"/>
				</linearGradient>
				<path style="fill:url(#SVGID_00000093172829348133577460000016296060461812944314_);" d="M2680.961,3129.237L2680.961,3129.237
					c-3.704,0-6.706-3.002-6.706-6.706v-766.687c0-3.703,3.002-6.706,6.706-6.706l0,0c3.703,0,6.706,3.002,6.706,6.706v766.687
					C2687.666,3126.235,2684.664,3129.237,2680.961,3129.237z"/>
			</g>
			<g>
				<path style="fill:#FFFFFF;" d="M2765.263,2677.832l84.262,155.102l63.046-112.497c6.991-12.474,7.207-27.636,0.574-40.304
					l-38.812-74.127c-3.229-6.167-12.089-6.074-15.187,0.16l-26.901,54.121l-56.158-0.479
					C2766.79,2659.729,2760.825,2669.662,2765.263,2677.832z"/>
				<path style="fill:#FFFFFF;" d="M2900.169,2742.569l-12.965,8.878c-12.554,8.597-27.443,13.137-42.657,13.007l-117.243-0.999
					l0.229-26.823c0.029-3.379-4.451-4.591-6.13-1.659l-54.669,95.467l53.551,95.595c1.608,2.871,5.969,1.852,6.141-1.433
					l1.652-31.764l54.519,0.464c21.833,0.186,41.99-11.684,52.418-30.867L2900.169,2742.569z"/>
				<path style="fill:#FFFFFF;" d="M2630.751,2625.096l92.191-150.524l-128.948,1.648c-14.298,0.183-27.537,7.577-35.191,19.655
					l-44.79,70.676c-3.727,5.88,0.784,13.506,7.732,13.073l60.321-3.763l27.665,48.874
					C2614.31,2632.825,2625.895,2633.025,2630.751,2625.096z"/>
				<path style="fill:#FFFFFF;" d="M2649.417,2765.296l-176.453-4.578l65.901,110.849c7.308,12.291,20.33,20.059,34.617,20.649
					l83.602,3.451c6.956,0.287,11.305-7.432,7.455-13.232l-33.419-50.358l28.493-48.395
					C2664.33,2775.67,2658.711,2765.537,2649.417,2765.296z"/>
				<path style="fill:#FFFFFF;" d="M2525.9,2849.76l-1.206-15.667c-1.168-15.17,2.344-30.334,10.064-43.446l59.486-101.036
					l23.115,13.609c2.912,1.714,6.201-1.559,4.502-4.479l-55.342-95.078l-109.563-1.42c-3.29-0.043-4.589,4.243-1.829,6.034
					l26.682,17.313l-27.661,46.982c-11.078,18.816-10.877,42.207,0.523,60.829L2525.9,2849.76z"/>
				<path style="fill:#FFFFFF;" d="M2932.14,2486.239c0.26,0.265,0.521,0.53,0.781,0.794L2932.14,2486.239z"/>
				<path style="fill:#FFFFFF;" d="M2932.14,2486.239c0.258,0.528,0.517,1.055,0.775,1.582L2932.14,2486.239z"/>
				<path style="fill:#FFFFFF;" d="M2619.362,2475.896l14.171,6.789c13.722,6.573,25.098,17.197,32.593,30.438l57.757,102.034
					l-23.344,13.214c-2.94,1.664-1.75,6.15,1.628,6.138l110.011-0.388l56.012-94.175c1.682-2.828-1.381-6.096-4.312-4.601
					l-28.335,14.451l-26.857-47.446c-10.756-19.001-31.114-30.523-52.941-29.962L2619.362,2475.896z"/>
			</g>
		</g>
	</g>
</g>
</svg>
