<svg width="320.88" height="44.67" version="1.1" viewBox="0 0 320.88 44.67"
  xmlns="http://www.w3.org/2000/svg">
  <g transform="translate(200.51 -39.653)">
    <g transform="matrix(.35278 0 0 -.35278 -238.07 121.99)">
      <g transform="translate(1002.4 125.87)">
        <path d="m0 0c1.412 0 2.235 1.411 1.177 2.941l-17.055 22.462 16.701 20.111c1.177 1.528 0.236 2.94-1.177 2.94h-13.17c-1.65 0-2.589-0.707-3.413-1.882l-15.524-19.994v19.876c0 1.176-0.826 2-2 2h-11.997c-1.179 0-2-0.824-2-2v-44.454c0-1.177 0.821-2 2-2h11.997c1.174 0 2 0.823 2 2v21.873l15.524-21.991c0.824-1.177 1.763-1.882 3.413-1.882z" fill="#ff6900"/>
      </g>
      <g transform="translate(941.4 110.38)">
        <path d="m0 0c0-1.159 0.823-1.972 2.002-1.972h70.648c1.177 0 2.002 0.813 2.002 1.972v5.45c0 1.159-0.825 1.972-2.002 1.972h-70.648c-1.179 0-2.002-0.813-2.002-1.972z" fill="#ff6900"/>
      </g>
      <g transform="translate(941.4 184.37)">
        <path d="m0 0c0-1.159 0.823-1.971 2.002-1.971h70.648c1.177 0 2.002 0.812 2.002 1.971v5.451c0 1.159-0.825 1.971-2.002 1.971h-70.648c-1.179 0-2.002-0.812-2.002-1.971z" fill="#ff6900"/>
      </g>
      <g transform="translate(190.63 150.73)">
        <path d="m0 0c0-18.277-8.298-28.399-23.982-28.399-12.682 0-24.438 6.325-24.438 27.854 0 18.807 9.915 27.669 24.438 27.669 16.837 0 23.982-10.853 23.982-27.124m35.746-0.729c0 32.019-33.663 43.417-59.728 43.417-31.359 0-60.186-14.834-60.186-43.233 0-26.233 25.367-43.418 60.186-43.418 23.525 0 59.728 10.128 59.728 43.234m50.04 41.787h-33.435v-83.398h33.435v53.729c8.763 10.308 14.992 13.751 23.292 13.751 9.456 0 16.603-4.879 16.603-16.64v-50.84h33.442v53.008c0 24.603-22.143 32.02-38.747 32.02-13.609 0-23.979-3.981-34.59-13.567zm128.68 0h-33.439v-83.398h33.439v53.729c8.762 10.308 14.986 13.751 23.291 13.751 9.454 0 16.605-4.879 16.605-16.64v-50.84h33.433v53.008c0 24.603-22.131 32.02-38.734 32.02-13.609 0-23.99-3.981-34.595-13.567zm112.53 41.603c-10.143 0-18.448-6.517-18.448-14.472 0-7.956 8.305-14.472 18.448-14.472 10.144 0 18.446 6.516 18.446 14.472 0 7.955-8.302 14.472-18.446 14.472m16.833-41.603h-33.437v-83.384h33.437zm60.652 0h-33.443v-83.398h33.443v53.729c8.755 10.308 14.989 13.751 23.291 13.751 9.45 0 16.605-4.879 16.605-16.64v-50.84h33.436v53.008c0 24.603-22.145 32.02-38.742 32.02-13.608 0-23.987-3.981-34.59-13.567zm125.21-32.196c1.389 11.575 9.917 18.262 23.065 18.262 12.907 0 21.672-6.863 23.052-18.262zm20.756 33.826c-32.743 0-56.04-18.093-56.04-43.596 0-26.055 24.22-43.055 61.574-43.055 8.294 0 28.364 0 47.504 11.035v16.458c-15.684-8.862-26.061-11.929-39.436-11.929-20.982 0-33.903 8.678-35.05 23.503h76.327c1.622 30.396-23.978 47.584-54.879 47.584m107.69-1.63h-33.435v-83.398h33.435v53.729c8.763 10.308 14.99 13.751 23.284 13.751 9.458 0 16.605-4.879 16.605-16.64v-50.84h33.444v53.008c0 24.603-22.145 32.02-38.749 32.02-13.6 0-23.979-3.981-34.584-13.567z" fill="#002855"/>
      </g>
    </g>
  </g>
</svg>
